<?xml version="1.0" standalone="no"?>
<!DOCTYPE svg PUBLIC "-//W3C//DTD SVG 20010904//EN"
 "http://www.w3.org/TR/2001/REC-SVG-20010904/DTD/svg10.dtd">
<svg version="1.0" xmlns="http://www.w3.org/2000/svg"
 width="512.000000pt" height="512.000000pt" viewBox="0 0 512.000000 512.000000"
 preserveAspectRatio="xMidYMid meet">
<metadata>
Created by potrace 1.14, written by Peter Selinger 2001-2017
</metadata>
<g transform="translate(0.000000,512.000000) scale(0.100000,-0.100000)"
fill="#000000" stroke="none">
<path d="M2368 5115 c-1 -2 -35 -6 -73 -9 -39 -3 -79 -8 -90 -10 -11 -2 -40
-7 -65 -10 -70 -10 -98 -15 -205 -42 -341 -86 -659 -239 -940 -453 -121 -92
-367 -334 -457 -451 -213 -277 -374 -597 -459 -916 -17 -64 -32 -126 -35 -138
-2 -11 -11 -61 -20 -111 -14 -70 -18 -156 -20 -395 -3 -330 6 -421 62 -642
234 -928 955 -1648 1877 -1874 56 -13 118 -27 137 -30 19 -3 41 -7 48 -9 57
-20 668 -29 777 -12 360 55 673 165 965 340 247 148 490 356 660 567 25 30 48
57 51 60 10 10 125 175 159 230 134 219 268 544 315 768 18 82 45 248 53 327
9 87 8 489 -1 530 -4 19 -15 88 -22 145 -3 21 -17 89 -40 194 -3 10 -12 44
-21 75 -9 31 -18 63 -19 71 -2 8 -17 51 -33 95 -260 710 -796 1261 -1488 1530
-298 116 -557 165 -901 170 -116 2 -213 2 -215 0z"/>
</g>
</svg>
